<?xml version="1.0" encoding="UTF-8"?>
<svg version="1.1" xmlns="http://www.w3.org/2000/svg" width="64" height="64">
<path d="M0 0 C0.83789062 0.61875 1.67578125 1.2375 2.5390625 1.875 C2.5390625 2.535 2.5390625 3.195 2.5390625 3.875 C3.0959375 4.1225 3.6528125 4.37 4.2265625 4.625 C8.48620174 6.9275077 11.93699951 9.76647949 14.5390625 13.875 C14.5390625 14.535 14.5390625 15.195 14.5390625 15.875 C15.1990625 15.875 15.8590625 15.875 16.5390625 15.875 C30.04596283 38.2300931 30.04596283 38.2300931 29.5390625 48.875 C30.25449219 48.97941406 30.96992188 49.08382812 31.70703125 49.19140625 C34.85069927 49.95022267 37.09122023 51.13993706 39.8515625 52.8125 C40.73457031 53.33714844 41.61757812 53.86179687 42.52734375 54.40234375 C43.19121094 54.88832031 43.85507813 55.37429687 44.5390625 55.875 C44.5390625 56.535 44.5390625 57.195 44.5390625 57.875 C45.0959375 58.1225 45.6528125 58.37 46.2265625 58.625 C57.30568567 64.61371523 63.22846433 76.90060699 67.1953125 88.375 C69.07189891 94.86970547 68.94053422 101.28797377 68.8515625 108 C68.85478516 109.22332031 68.85800781 110.44664063 68.86132812 111.70703125 C68.80527533 121.13409242 68.80527533 121.13409242 67.53735352 125.77978516 C66.45367505 129.83777004 66.25957648 133.76791672 66.265625 137.953125 C66.24536128 139.45834111 66.22451104 140.96354942 66.203125 142.46875 C66.18044245 144.80801092 66.164008 147.14696179 66.15820312 149.48632812 C66.14869042 151.76747429 66.11496967 154.04727956 66.078125 156.328125 C66.08317047 157.02609192 66.08821594 157.72405884 66.09341431 158.44317627 C66.02783408 161.67976219 65.71705263 163.61315418 63.88183594 166.31298828 C60.91065739 168.2939804 59.07386815 168.38655448 55.515625 168.4140625 C54.33548828 168.43597656 53.15535156 168.45789063 51.93945312 168.48046875 C50.69357422 168.48691406 49.44769531 168.49335938 48.1640625 168.5 C45.62488781 168.54920379 43.08581201 168.60382985 40.546875 168.6640625 C39.33290039 168.69274414 38.11892578 168.72142578 36.86816406 168.75097656 C30.41868301 168.99124764 23.90560263 169.6635931 17.66992188 171.39355469 C1.7453499 174.9915446 -15.7611709 171.20373228 -29.4609375 162.875 C-36.50871668 157.86513287 -43.46501746 152.00384865 -48.4609375 144.875 C-48.4609375 143.885 -48.4609375 142.895 -48.4609375 141.875 C-49.55535156 141.91496094 -50.64976563 141.95492187 -51.77734375 141.99609375 C-57.11296187 141.9949198 -62.18040224 140.96967809 -67.3984375 139.9375 C-79.85086424 137.5154816 -91.71137453 136.63978476 -104.41430664 136.47363281 C-106.35586359 136.44616354 -108.2971138 136.39917417 -110.23828125 136.3515625 C-111.38546631 136.33174316 -112.53265137 136.31192383 -113.71459961 136.29150391 C-114.62089111 136.15405762 -115.52718262 136.01661133 -116.4609375 135.875 C-118.62590567 132.62754775 -118.72630316 131.61738945 -118.8046875 127.8515625 C-118.83296631 126.8402124 -118.86124512 125.8288623 -118.89038086 124.78686523 C-118.91366455 123.70219971 -118.93694824 122.61753418 -118.9609375 121.5 C-119.22018338 113.07786384 -119.60677641 104.70258509 -120.3984375 96.3125 C-120.47320312 95.47605957 -120.54796875 94.63961914 -120.625 93.77783203 C-120.98938486 90.09739565 -121.48083259 86.80555349 -122.50390625 83.234375 C-124.02634671 77.51651244 -123.83294595 71.6201466 -123.83154297 65.7409668 C-123.83589234 63.7086038 -123.87223061 61.6784615 -123.91015625 59.64648438 C-124.00849415 48.32049011 -121.65167641 38.3177782 -116.3359375 28.3125 C-115.83835937 27.36246094 -115.34078125 26.41242187 -114.828125 25.43359375 C-114.15136719 24.16708984 -114.15136719 24.16708984 -113.4609375 22.875 C-112.78983012 21.54389628 -112.12130751 20.21146312 -111.4609375 18.875 C-110.8009375 18.875 -110.1409375 18.875 -109.4609375 18.875 C-109.19152344 18.29105469 -108.92210938 17.70710938 -108.64453125 17.10546875 C-100.79126896 2.30608669 -83.69764774 -6.67685915 -68.3984375 -11.5 C-44.22537341 -18.51110308 -20.88142749 -13.19598695 0 0 Z " fill="#48D0F8" transform="translate(123.4609375,17.125)"/>
<path d="M0 0 C0.495 0.99 0.495 0.99 1 2 C1.5775 2.28875 2.155 2.5775 2.75 2.875 C13.85308834 8.42654417 19.7855078 21.3036004 23.65625 32.5 C25.53283641 38.99470547 25.40147172 45.41297377 25.3125 52.125 C25.31572266 53.34832031 25.31894531 54.57164063 25.32226562 55.83203125 C25.26621283 65.25909242 25.26621283 65.25909242 23.99829102 69.90478516 C22.91461255 73.96277004 22.72051398 77.89291672 22.7265625 82.078125 C22.70629878 83.58334111 22.68544854 85.08854942 22.6640625 86.59375 C22.64137995 88.93301092 22.6249455 91.27196179 22.61914062 93.61132812 C22.60962792 95.89247429 22.57590717 98.17227956 22.5390625 100.453125 C22.54410797 101.15109192 22.54915344 101.84905884 22.55435181 102.56817627 C22.48877158 105.80476219 22.17799013 107.73815418 20.34277344 110.43798828 C17.37159489 112.4189804 15.53480565 112.51155448 11.9765625 112.5390625 C10.79642578 112.56097656 9.61628906 112.58289063 8.40039062 112.60546875 C7.15451172 112.61191406 5.90863281 112.61835938 4.625 112.625 C2.08582531 112.67420379 -0.45325049 112.72882985 -2.9921875 112.7890625 C-4.81314941 112.83208496 -4.81314941 112.83208496 -6.67089844 112.87597656 C-13.12037949 113.11624764 -19.63345987 113.7885931 -25.86914062 115.51855469 C-41.78561498 119.11471503 -59.31055655 115.33663597 -73 107 C-88.89887871 95.59021645 -88.89887871 95.59021645 -90.6484375 88.296875 C-90.82246094 87.15992188 -90.82246094 87.15992188 -91 86 C-89.8140625 85.85304688 -88.628125 85.70609375 -87.40625 85.5546875 C-64.5843137 82.49057634 -44.74364894 74.15289601 -29.64453125 56.19921875 C-25.33717049 50.4857027 -21.90582851 44.53041319 -19 38 C-18.49082031 36.9171875 -17.98164063 35.834375 -17.45703125 34.71875 C-16.13354467 31.34084322 -15.45938209 28.43427237 -14.87231445 24.89697266 C-13.2923572 15.78605848 -10.35625908 11.0849581 -3.36328125 5.1015625 C-0.77283307 3.14981029 -0.77283307 3.14981029 0 0 Z " fill="#83E6B4" transform="translate(167,73)"/>
<path d="M0 0 C4.05929842 0.901385 5.93257591 3.093383 8.36328125 6.3515625 C10.20811075 9.70526213 10.34653286 11.84038699 9.5859375 15.57421875 C7.33259546 19.91398861 5.13226821 22.67110357 0.5859375 24.57421875 C-3.73214196 25.1237925 -5.85735144 24.86833025 -9.7265625 22.82421875 C-12.82201108 20.23268041 -14.13555099 18.38454359 -14.75 14.390625 C-14.8200292 10.34993996 -14.77291409 8.1558058 -12.6015625 4.63671875 C-8.42724391 0.70093265 -5.58671997 -0.10649173 0 0 Z " fill="#F7FDFE" transform="translate(43.4140625,72.42578125)"/>
<path d="M0 0 C3.0717718 1.71077974 5.40485654 3.80971307 7 7 C7.43281664 11.23660902 7.44858706 14.91394711 5.8125 18.875 C2.72146632 22.49897052 0.30830616 23.83348831 -4.4375 24.4375 C-8.68345227 23.91606726 -10.73817577 22.73082959 -14 20 C-16.56450675 15.82501802 -16.70782757 11.77570408 -16 7 C-11.99650723 0.51158068 -7.31978834 -1.25945251 0 0 Z " fill="#F9FDFE" transform="translate(79,73)"/>
<path d="M0 0 C3.10352458 1.60923497 5.21701424 3.00347267 7.375 5.75 C8.82399408 10.96637867 8.70053657 14.64896519 6.25 19.375 C3.04742257 23.11134034 1.49569615 23.83381154 -3.375 24.375 C-7.67080432 23.93060645 -9.67783589 22.70408706 -13 20 C-15.82605874 15.7609119 -15.66012246 11.97875497 -15 7 C-11.34186423 0.94515459 -6.97509584 -1.08120578 0 0 Z " fill="#F9FDFE" transform="translate(112,73)"/>
<path d="M0 0 C4.53231376 0.90646275 6.21820658 1.54112999 9.8125 4.0625 C10.60269531 4.61035156 11.39289063 5.15820312 12.20703125 5.72265625 C12.79871094 6.14417969 13.39039063 6.56570312 14 7 C13.51518423 11.26439995 11.07817386 13.19393218 8.0625 16.0625 C5.35144223 18.65653369 3.08445813 20.87331281 1 24 C0.67 16.08 0.34 8.16 0 0 Z " fill="#4FC79A" transform="translate(153,66)"/>
<path d="M0 0 C2.475 0.495 2.475 0.495 5 1 C5.33 1.99 5.66 2.98 6 4 C6.66 4 7.32 4 8 4 C6.32166302 7.74398249 6.32166302 7.74398249 4.46875 9.21875 C2.27101947 11.88408277 2.4807033 14.28979338 2.3125 17.6875 C2.21388672 19.45673828 2.21388672 19.45673828 2.11328125 21.26171875 C2.05720703 22.61716797 2.05720703 22.61716797 2 24 C1.67 24 1.34 24 1 24 C0.67 16.08 0.34 8.16 0 0 Z " fill="#39BEA1" transform="translate(153,66)"/>
<path d="M0 0 C-5.80766296 1.5056904 -10.9981863 2.21824777 -17 2 C-16.67 3.32 -16.34 4.64 -16 6 C-18 5 -18 5 -18.6875 3 C-18.790625 2.34 -18.89375 1.68 -19 1 C-17.08339032 -0.91660968 -13.75199797 -0.44012373 -11.1875 -0.625 C-9.32158203 -0.76808594 -9.32158203 -0.76808594 -7.41796875 -0.9140625 C-4.60356127 -0.98482475 -2.63107091 -0.88806927 0 0 Z " fill="#41C1C4" transform="translate(93,157)"/>
</svg>
